<?xml version="1.0" encoding="UTF-8"?>
<svg id="Layer_1" xmlns="http://www.w3.org/2000/svg" version="1.1" viewBox="0 0 116 58">
  <!-- Generator: Adobe Illustrator 29.7.1, SVG Export Plug-In . SVG Version: 2.1.1 Build 8)  -->
  <g>
    <path d="M112.657,40.328c-.101-.469-.239-.929-.411-1.377-.345-.937-.748-1.854-1.048-2.807-.072-.07-.123-.158-.148-.255-.902-2.235-1.963-4.402-3.173-6.486-2.145-3.73-4.706-7.205-7.633-10.358-1.499-1.616-3.09-3.145-4.764-4.579-1.266-1.081-2.565-2.117-3.917-3.079-2.723-1.945-5.611-3.648-8.632-5.089-1.784-.851-3.597-1.62-5.455-2.29-2.422-.876-4.901-1.586-7.419-2.125-1.389-.296-2.787-.543-4.197-.723-.773-.099-1.546-.185-2.318-.275-.884-.103-1.776-.193-2.659-.21-2.133-.045-4.267-.095-6.396.049-1.097.074-2.195.16-3.288.292-1.311.16-2.618.358-3.917.604-3.126.589-6.197,1.441-9.179,2.548-2.64.976-5.206,2.141-7.678,3.486-4.533,2.46-8.71,5.524-12.418,9.109-1.505,1.454-2.927,2.993-4.258,4.608-1.659,1.999-3.181,4.108-4.554,6.314-1.621,2.583-3.021,5.299-4.184,8.118-.035.123-.1.236-.189.329-.004.144-.042.285-.111.411-.292.76-.588,1.517-.88,2.277-.177.474-.314.962-.411,1.459v.082c-.029.16-.053.317-.078.481l-1.5,9.335c-.045.234-.086.469-.115.707-.311,2.781,1.423,5.383,4.11,6.166.749.197,1.523.285,2.298.263h43.106l.02-.006,17.077-.04h37.538c1.148.033,2.296.005,3.44-.086,2.823-.34,4.975-2.691,5.064-5.533.006-.274-.005-.549-.033-.822h.026l-1.634-10.001c-.022-.167-.049-.333-.082-.497Z" fill="#db8d27"/>
    <polygon points="114.373 50.826 114.383 50.887 114.384 50.888 114.384 50.826 114.373 50.826" fill="#db8d27"/>
  </g>
  <g>
    <path d="M112.623,32.715c-1.214-.736-2.5-1.345-3.839-1.817-.261-.079-.505-.206-.719-.374-.341-.044-.667-.172-.945-.374-.649-.411-1.336-.789-1.965-1.233-1.046-.772-1.922-1.751-2.573-2.877-1.014-1.672-1.664-3.539-1.907-5.479-.053-.237-.075-.48-.066-.723-.058-.193-.123-.378-.169-.575-.23-1.007-.555-1.981-.876-2.96-.385-1.194-1.129-2.24-2.129-2.996-.697-.507-1.499-.851-2.347-1.007-.849-.203-1.717-.314-2.59-.333-.141.003-.282-.025-.411-.082-.351.091-.714.13-1.077.115-.822.041-1.644.173-2.466.214-.471.035-.939.098-1.402.189-2.231.44-4.538-.203-6.219-1.735-1.401-1.252-2.677-2.636-3.81-4.135-1.215-1.529-2.94-2.571-4.859-2.935-.639-.163-1.294-.254-1.952-.271-1.264.004-2.514.274-3.666.793-1.096.472-2.098,1.136-2.96,1.961-.674.645-1.418,1.212-2.22,1.689-.778.459-1.649.74-2.548.822-1.14.137-2.296.01-3.379-.37-.811-.332-1.564-.792-2.228-1.365-.575-.452-1.114-.945-1.673-1.414-1.021-.818-2.195-1.424-3.453-1.784-.875-.283-1.795-.397-2.713-.337-1.592.099-3.14.566-4.521,1.365-.906.581-1.694,1.329-2.322,2.203-.934,1.199-1.959,2.325-3.066,3.366-.888.904-1.987,1.573-3.198,1.948-.851.251-1.742.34-2.627.263-1.011-.107-2.01-.28-3.021-.362-.822-.066-1.644-.123-2.466-.185-.1.01-.2-.01-.288-.058-.317.088-.645.129-.974.123-.834.051-1.661.188-2.466.411-2.025.539-3.605,2.124-4.135,4.152-.341,1.077-.645,2.162-.966,3.243.025.544-.042,1.089-.197,1.611-.382,2.093-1.256,4.065-2.548,5.755-.673.879-1.511,1.619-2.466,2.179-.473.271-.929.567-1.393.851-.237.182-.524.288-.822.304-.165.138-.355.242-.559.308-1.279.459-2.516,1.025-3.699,1.693-.924.522-1.713,1.254-2.302,2.137-.501.722-.792,1.568-.843,2.446v1.55c.088,1.805.506,3.578,1.233,5.233.32.801.818,1.519,1.455,2.1-.489,3.331,1.193,6.604,4.184,8.147,2.347,1.097,22.455,1.233,43.982,1.011l13.161-.202c20.704-.3,39.612-.781,41.926-.851,5.228-.152,6.211-8.151,6.211-8.151.036-.024.07-.05.103-.078.573-.545,1.026-1.205,1.328-1.936.619-1.357,1.012-2.807,1.163-4.291-.035-.2-.01-.407.074-.592v-2.495l.01.027c-.127-.308-.154-.648-.295-.955-.519-1.191-1.39-2.195-2.495-2.877Z" fill="#b6cc34"/>
    <path d="M115.419,36.561l-.006-.014s.003.01.005.015h0Z" fill="#b6cc34"/>
  </g>
  <path d="M113.841,48.749c-.354-.937-.769-1.853-1.077-2.807-.073-.07-.126-.158-.152-.255-.938-2.236-2.037-4.401-3.288-6.478-1.196-2.024-2.518-3.971-3.958-5.829-1.219-1.574-2.52-3.083-3.897-4.521-1.545-1.619-3.181-3.148-4.9-4.579-1.299-1.081-2.639-2.117-4.028-3.079-2.803-1.949-5.77-3.651-8.866-5.089-1.838-.851-3.704-1.62-5.611-2.29-2.502-.875-5.059-1.582-7.654-2.117-1.439-.312-2.869-.542-4.316-.723-.797-.098-1.591-.185-2.388-.275-.913-.099-1.825-.21-2.738-.21-2.187-.041-4.382-.095-6.577.049-1.131.074-2.257.156-3.379.292-1.348.16-2.692.357-4.028.604-3.216.587-6.378,1.439-9.454,2.548-2.712.975-5.352,2.139-7.9,3.486-4.648,2.449-8.945,5.513-12.775,9.109-1.55,1.452-3.015,2.99-4.39,4.608-1.705,1.995-3.27,4.105-4.686,6.314-1.665,2.577-3.105,5.294-4.304,8.118-.036.124-.102.237-.193.329v.002l-.029.053c-.005.144-.044.285-.115.411-.3.76-.604,1.517-.904,2.277-.285.72-.475,1.474-.563,2.244-.312,2.782,1.423,5.384,4.11,6.166.75.197,1.523.285,2.298.263h42.162l.003.003h18.716l.04-.054h36.876c1.147.034,2.296.005,3.44-.086,2.834-.333,4.996-2.693,5.08-5.545.005-1.006-.183-2.004-.555-2.939Z" fill="#f8a01b"/>
</svg>