<?xml version="1.0" encoding="UTF-8"?>
<svg id="Layer_1" xmlns="http://www.w3.org/2000/svg" version="1.1" viewBox="0 0 192.735 42.785">
  <!-- Generator: Adobe Illustrator 29.7.1, SVG Export Plug-In . SVG Version: 2.1.1 Build 8)  -->
  <path d="M0,33.128h5.994V1.101H0v32.027ZM39.9,29.101c-3.253,3.156-7.639,4.871-12.17,4.759-11.895,0-16.928-8.191-16.974-16.516C10.71,8.972,16.154.459,27.728.459c4.417-.005,8.652,1.758,11.759,4.897l-4.026,3.888c-2.085-1.977-4.86-3.061-7.733-3.018-7.73,0-11.072,5.766-11.025,11.12.045,5.306,3.116,10.845,11.025,10.845,3.001-.019,5.881-1.181,8.056-3.249l4.116,4.16ZM48.875,18.166h9.055c7.737,0,7.691-11.35,0-11.35h-9.055v11.35ZM57.929,23.702h-9.055v9.425h-6.036V1.101c5.034,0,10.065-.048,15.099-.048,15.649,0,15.694,22.65,0,22.65M93.537,8.833c-1.097-1.832-4.119-3.569-7.594-3.569-4.483,0-6.633,1.874-6.633,4.254,0,2.792,3.295,3.569,7.138,4.029,6.678.823,12.902,2.56,12.902,10.2,0,7.138-6.316,10.205-13.451,10.205-6.544,0-11.577-2.012-13.957-7.871l5.034-2.607c1.418,3.522,5.124,5.078,9.013,5.078,3.797,0,7.368-1.327,7.368-4.807,0-3.018-3.156-4.254-7.413-4.711-6.544-.779-12.582-2.517-12.582-9.7C73.362,2.747,79.858.047,85.762,0,90.748,0,95.919,1.419,98.344,6.361l-4.807,2.473ZM123.879,10.526l4.939,16.974,5.171-16.974h6.178l-7.871,22.695h-6.498l-2.337-6.678-2.014-7.55-2.014,7.55-2.337,6.678h-6.499l-7.915-22.695h6.223l5.171,16.974,4.896-16.974h4.906ZM152.114,28.635c-3.53,0-6.391-2.861-6.391-6.391,0-3.53,2.861-6.391,6.391-6.391s6.391,2.861,6.391,6.391h0c-.004,3.528-2.863,6.387-6.391,6.391M158.562,12.191c-5.553-3.565-12.944-1.954-16.51,3.598s-1.954,12.944,3.598,16.51c3.933,2.526,8.978,2.526,12.911,0v1.432h5.501V10.711h-5.501v1.481ZM180.785,28.61c-3.529,0-6.389-2.862-6.389-6.391s2.862-6.389,6.391-6.389c3.528,0,6.388,2.861,6.389,6.389-.004,3.528-2.863,6.387-6.391,6.391M180.785,10.272c-2.729.002-5.374.939-7.497,2.654v-2.103h-5.501v31.962h5.501v-11.272c5.135,4.141,12.655,3.335,16.795-1.8,4.141-5.135,3.335-12.655-1.8-16.795-2.124-1.713-4.77-2.646-7.498-2.646" fill-rule="evenodd"/>
</svg>