<?xml version="1.0" encoding="UTF-8"?>
<svg id="Layer_1" xmlns="http://www.w3.org/2000/svg" version="1.1" viewBox="0 0 145.865 145.865">
  <!-- Generator: Adobe Illustrator 29.7.1, SVG Export Plug-In . SVG Version: 2.1.1 Build 8)  -->
  <circle cx="72.933" cy="72.933" r="72.933" fill="#1a223f"/>
  <path d="M73.88,64.041h-6.805l1.075-3.211h-23.46c-.683,0-3.973,7.37-4.119,8.562h23.102c1.201,0,3.441.856,4.126,1.953,1.754,2.802-.517,6.649-1.737,9.348-2.363,5.229-4.997,10.001-11.329,10.832l-26.358-.168c-3.95-2.009-2.495-6.526-.516-9.477h6.622c-.324.495-1.644,3.211-.537,3.211h22.209c.46-.234.884-.532,1.26-.886,1.298-2.339,2.474-4.743,3.524-7.204.027-.3-.262-.83-.487-.83h-24.353c-.697-.351-1.364-.76-1.992-1.224-1.863-1.823-.919-4.553-.151-6.616,1.997-5.359,5.086-11.89,10.988-13.671,4.053-1.224,20.35-.999,25.191-.621,6.979.544,6.142,4.954,3.747,10.001M66.823,91.511l17.342-37.129,1.439-.35c9.082.576,18.968-.705,27.949.026,2.962.241,5.507,1.006,5.585,4.451.046,2.048-3.263,8.835-4.376,11.008-3.016,5.892-6.638,9.836-13.915,9.15l4.126,11.019c-.12.625-.305,1.236-.551,1.823h-7.341l-4.869-12.806c-1.689.132-12.461-.384-12.895.185l-5.872,12.622-6.623.002ZM111.59,60.831h-23.096c-.353,0-1.109.788-1.334,1.168-1.534,2.848-2.887,5.79-4.052,8.809-.146.341-.203.714-.166,1.083h23.458c.901-1.04,5.636-10.631,5.193-11.059" fill="#fff"/>
</svg>